<?xml version="1.0" encoding="UTF-8" standalone="no"?>
<!-- Created with Bouml (http://bouml.free.fr/) -->
<!DOCTYPE svg PUBLIC "-//W3C//DTD SVG 1.1//EN" "http://www.w3.org/Graphics/SVG/1.1/DTD/svg11.dtd">
<svg width="834" height="984" version="1.1" xmlns="http://www.w3.org/2000/svg">
<g>
	<rect fill="#cbcbcb" stroke="none" stroke-opacity="1" x="473" y="412" width="2" height="60" />
	<rect fill="#cbcbcb" stroke="none" stroke-opacity="1" x="427" y="470" width="48" height="2" />
	<rect fill="#ffffc0" stroke="black" stroke-width="1" stroke-opacity="1" x="424" y="409" width="49" height="61" />
	<text font-family="Helvetica" font-size="3" fill="#000000" xml:space="preserve" font-weight="bold" font-style="italic" text-anchor="middle" x="449" y="412">Asteroid</text>
	<line stroke="black" stroke-opacity="1" x1="424" y1="415" x2="473" y2="415" />
	<text font-family="Helvetica" font-size="3" fill="#000000" xml:space="preserve" x="425" y="418">health</text>
	<text font-family="Helvetica" font-size="3" fill="#000000" xml:space="preserve" x="425" y="424">maxHealth</text>
	<text font-family="Helvetica" font-size="3" fill="#000000" xml:space="preserve" x="425" y="430">value</text>
	<line stroke="black" stroke-opacity="1" x1="424" y1="433" x2="473" y2="433" />
	<text font-family="Helvetica" font-size="3" fill="#000000" xml:space="preserve" x="425" y="436">Asteroid()</text>
	<text font-family="Helvetica" font-size="3" fill="#000000" xml:space="preserve" x="425" y="442">getHealth()</text>
	<text font-family="Helvetica" font-size="3" fill="#000000" xml:space="preserve" x="425" y="448">getValue()</text>
	<text font-family="Helvetica" font-size="3" fill="#000000" xml:space="preserve" font-style="italic" x="425" y="454">damageReceived()</text>
	<text font-family="Helvetica" font-size="3" fill="#000000" xml:space="preserve" font-style="italic" x="425" y="460">Tick()</text>
	<text font-family="Helvetica" font-size="3" fill="#000000" xml:space="preserve" font-style="italic" x="425" y="466">Draw()</text>
</g>
<g>
	<rect fill="#cbcbcb" stroke="none" stroke-opacity="1" x="700" y="22" width="2" height="56" />
	<rect fill="#cbcbcb" stroke="none" stroke-opacity="1" x="652" y="76" width="50" height="2" />
	<rect fill="#ffffc0" stroke="black" stroke-width="1" stroke-opacity="1" x="649" y="19" width="51" height="57" />
	<text font-family="Helvetica" font-size="3" fill="#000000" xml:space="preserve" font-weight="bold" text-anchor="middle" x="675" y="22">AsteroidFactory</text>
	<line stroke="black" stroke-opacity="1" x1="649" y1="25" x2="700" y2="25" />
	<line stroke="black" stroke-opacity="1" x1="649" y1="27" x2="700" y2="27" />
	<text font-family="Helvetica" font-size="3" fill="#000000" xml:space="preserve" text-decoration="underline" x="650" y="30">getInstance()</text>
	<text font-family="Helvetica" font-size="3" fill="#000000" xml:space="preserve" x="650" y="36">AsteroidFactory()</text>
	<text font-family="Helvetica" font-size="3" fill="#000000" xml:space="preserve" x="650" y="42">AsteroidFactory()</text>
	<text font-family="Helvetica" font-size="3" fill="#000000" xml:space="preserve" x="650" y="48">operator =()</text>
	<text font-family="Helvetica" font-size="3" fill="#000000" xml:space="preserve" x="650" y="54">randomFloatRange()</text>
	<text font-family="Helvetica" font-size="3" fill="#000000" xml:space="preserve" x="650" y="60">getErosAsteroid()</text>
	<text font-family="Helvetica" font-size="3" fill="#000000" xml:space="preserve" x="650" y="66">getBlumeAsteroid()</text>
	<text font-family="Helvetica" font-size="3" fill="#000000" xml:space="preserve" x="650" y="72">getZephyrAsteroid()</text>
</g>
<g>
	<rect fill="#cbcbcb" stroke="none" stroke-opacity="1" x="472" y="301" width="2" height="66" />
	<rect fill="#cbcbcb" stroke="none" stroke-opacity="1" x="430" y="365" width="44" height="2" />
	<rect fill="#ffffc0" stroke="black" stroke-width="1" stroke-opacity="1" x="427" y="298" width="45" height="67" />
	<text font-family="Helvetica" font-size="3" fill="#000000" xml:space="preserve" font-weight="bold" font-style="italic" text-anchor="middle" x="450" y="301">MovableObject</text>
	<line stroke="black" stroke-opacity="1" x1="427" y1="304" x2="472" y2="304" />
	<text font-family="Helvetica" font-size="3" fill="#000000" xml:space="preserve" x="428" y="307">direction</text>
	<text font-family="Helvetica" font-size="3" fill="#000000" xml:space="preserve" x="428" y="313">speed</text>
	<line stroke="black" stroke-opacity="1" x1="427" y1="316" x2="472" y2="316" />
	<text font-family="Helvetica" font-size="3" fill="#000000" xml:space="preserve" x="428" y="319">MovableObject()</text>
	<text font-family="Helvetica" font-size="3" fill="#000000" xml:space="preserve" x="428" y="325">~MovableObject()</text>
	<text font-family="Helvetica" font-size="3" fill="#000000" xml:space="preserve" x="428" y="331">setDirection()</text>
	<text font-family="Helvetica" font-size="3" fill="#000000" xml:space="preserve" x="428" y="337">setSpeed()</text>
	<text font-family="Helvetica" font-size="3" fill="#000000" xml:space="preserve" x="428" y="343">getDirection()</text>
	<text font-family="Helvetica" font-size="3" fill="#000000" xml:space="preserve" x="428" y="349">getSpeed()</text>
	<text font-family="Helvetica" font-size="3" fill="#000000" xml:space="preserve" font-style="italic" x="428" y="355">Tick()</text>
	<text font-family="Helvetica" font-size="3" fill="#000000" xml:space="preserve" font-style="italic" x="428" y="361">Draw()</text>
</g>
<g>
	<rect fill="#cbcbcb" stroke="none" stroke-opacity="1" x="414" y="514" width="2" height="32" />
	<rect fill="#cbcbcb" stroke="none" stroke-opacity="1" x="368" y="544" width="48" height="2" />
	<rect fill="#ffffc0" stroke="black" stroke-width="1" stroke-opacity="1" x="365" y="511" width="49" height="33" />
	<text font-family="Helvetica" font-size="3" fill="#000000" xml:space="preserve" font-weight="bold" text-anchor="middle" x="390" y="514">Eros</text>
	<line stroke="black" stroke-opacity="1" x1="365" y1="517" x2="414" y2="517" />
	<line stroke="black" stroke-opacity="1" x1="365" y1="519" x2="414" y2="519" />
	<text font-family="Helvetica" font-size="3" fill="#000000" xml:space="preserve" x="366" y="522">Eros()</text>
	<text font-family="Helvetica" font-size="3" fill="#000000" xml:space="preserve" x="366" y="528">damageReceived()</text>
	<text font-family="Helvetica" font-size="3" fill="#000000" xml:space="preserve" x="366" y="534">Tick()</text>
	<text font-family="Helvetica" font-size="3" fill="#000000" xml:space="preserve" x="366" y="540">Draw()</text>
</g>
<g>
	<rect fill="#cbcbcb" stroke="none" stroke-opacity="1" x="473" y="514" width="2" height="32" />
	<rect fill="#cbcbcb" stroke="none" stroke-opacity="1" x="427" y="544" width="48" height="2" />
	<rect fill="#ffffc0" stroke="black" stroke-width="1" stroke-opacity="1" x="424" y="511" width="49" height="33" />
	<text font-family="Helvetica" font-size="3" fill="#000000" xml:space="preserve" font-weight="bold" text-anchor="middle" x="449" y="514">Blume</text>
	<line stroke="black" stroke-opacity="1" x1="424" y1="517" x2="473" y2="517" />
	<line stroke="black" stroke-opacity="1" x1="424" y1="519" x2="473" y2="519" />
	<text font-family="Helvetica" font-size="3" fill="#000000" xml:space="preserve" x="425" y="522">Blume()</text>
	<text font-family="Helvetica" font-size="3" fill="#000000" xml:space="preserve" x="425" y="528">damageReceived()</text>
	<text font-family="Helvetica" font-size="3" fill="#000000" xml:space="preserve" x="425" y="534">Tick()</text>
	<text font-family="Helvetica" font-size="3" fill="#000000" xml:space="preserve" x="425" y="540">Draw()</text>
</g>
<g>
	<line stroke="#000000" stroke-opacity="1" x1="450" y1="510" x2="450" y2="479" />
	<line stroke="#000000" stroke-opacity="1" x1="450" y1="473" x2="444" y2="479" />
	<line stroke="#000000" stroke-opacity="1" x1="450" y1="473" x2="456" y2="479" />
	<line stroke="#000000" stroke-opacity="1" x1="444" y1="479" x2="456" y2="479" />
</g>
<g>
	<line stroke="#000000" stroke-opacity="1" x1="450" y1="408" x2="450" y2="374" />
	<line stroke="#000000" stroke-opacity="1" x1="450" y1="368" x2="444" y2="374" />
	<line stroke="#000000" stroke-opacity="1" x1="450" y1="368" x2="456" y2="374" />
	<line stroke="#000000" stroke-opacity="1" x1="444" y1="374" x2="456" y2="374" />
</g>
<g>
	<line stroke="#000000" stroke-opacity="1" x1="391" y1="510" x2="392" y2="494" />
</g>
<g>
	<line stroke="#000000" stroke-opacity="1" x1="392" y1="494" x2="450" y2="494" />
</g>
<g>
	<rect fill="#cbcbcb" stroke="none" stroke-opacity="1" x="533" y="515" width="2" height="42" />
	<rect fill="#cbcbcb" stroke="none" stroke-opacity="1" x="487" y="555" width="48" height="2" />
	<rect fill="#ffffc0" stroke="black" stroke-width="1" stroke-opacity="1" x="484" y="512" width="49" height="43" />
	<text font-family="Helvetica" font-size="3" fill="#000000" xml:space="preserve" font-weight="bold" text-anchor="middle" x="509" y="515">Zephyr</text>
	<line stroke="black" stroke-opacity="1" x1="484" y1="518" x2="533" y2="518" />
	<text font-family="Helvetica" font-size="3" fill="#000000" xml:space="preserve" x="485" y="521">shield</text>
	<line stroke="black" stroke-opacity="1" x1="484" y1="524" x2="533" y2="524" />
	<text font-family="Helvetica" font-size="3" fill="#000000" xml:space="preserve" x="485" y="527">Zephyr()</text>
	<text font-family="Helvetica" font-size="3" fill="#000000" xml:space="preserve" x="485" y="533">getShield()</text>
	<text font-family="Helvetica" font-size="3" fill="#000000" xml:space="preserve" x="485" y="539">damageReceived()</text>
	<text font-family="Helvetica" font-size="3" fill="#000000" xml:space="preserve" x="485" y="545">Tick()</text>
	<text font-family="Helvetica" font-size="3" fill="#000000" xml:space="preserve" x="485" y="551">Draw()</text>
</g>
<g>
	<line stroke="#000000" stroke-opacity="1" x1="450" y1="494" x2="450" y2="479" />
	<line stroke="#000000" stroke-opacity="1" x1="450" y1="473" x2="444" y2="479" />
	<line stroke="#000000" stroke-opacity="1" x1="450" y1="473" x2="456" y2="479" />
	<line stroke="#000000" stroke-opacity="1" x1="444" y1="479" x2="456" y2="479" />
</g>
<g>
	<rect fill="#cbcbcb" stroke="none" stroke-opacity="1" x="83" y="585" width="2" height="180" />
	<rect fill="#cbcbcb" stroke="none" stroke-opacity="1" x="15" y="763" width="70" height="2" />
	<rect fill="#ffffc0" stroke="black" stroke-width="1" stroke-opacity="1" x="12" y="582" width="71" height="181" />
	<text font-family="Helvetica" font-size="3" fill="#000000" xml:space="preserve" font-weight="bold" text-anchor="middle" x="48" y="585">GraphicalDrawingBoard</text>
	<line stroke="black" stroke-opacity="1" x1="12" y1="588" x2="83" y2="588" />
	<text font-family="Helvetica" font-size="3" fill="#000000" xml:space="preserve" x="13" y="591">drawables</text>
	<text font-family="Helvetica" font-size="3" fill="#000000" xml:space="preserve" x="13" y="597">size</text>
	<text font-family="Helvetica" font-size="3" fill="#000000" xml:space="preserve" x="13" y="603">x1</text>
	<text font-family="Helvetica" font-size="3" fill="#000000" xml:space="preserve" x="13" y="609">y1</text>
	<text font-family="Helvetica" font-size="3" fill="#000000" xml:space="preserve" x="13" y="615">x2</text>
	<text font-family="Helvetica" font-size="3" fill="#000000" xml:space="preserve" x="13" y="621">y2</text>
	<line stroke="black" stroke-opacity="1" x1="12" y1="624" x2="83" y2="624" />
	<text font-family="Helvetica" font-size="3" fill="#000000" xml:space="preserve" x="13" y="627">GraphicalDrawingBoard()</text>
	<text font-family="Helvetica" font-size="3" fill="#000000" xml:space="preserve" x="13" y="633">Draw()</text>
	<text font-family="Helvetica" font-size="3" fill="#000000" xml:space="preserve" x="13" y="639">addDrawable()</text>
	<text font-family="Helvetica" font-size="3" fill="#000000" xml:space="preserve" x="13" y="645">removeDrawable()</text>
	<text font-family="Helvetica" font-size="3" fill="#000000" xml:space="preserve" x="13" y="651">isStartButton()</text>
	<text font-family="Helvetica" font-size="3" fill="#000000" xml:space="preserve" x="13" y="657">setEnvironment()</text>
	<text font-family="Helvetica" font-size="3" fill="#000000" xml:space="preserve" x="13" y="663">getSize()</text>
	<text font-family="Helvetica" font-size="3" fill="#000000" xml:space="preserve" x="13" y="669">getX1()</text>
	<text font-family="Helvetica" font-size="3" fill="#000000" xml:space="preserve" x="13" y="675">getX2()</text>
	<text font-family="Helvetica" font-size="3" fill="#000000" xml:space="preserve" x="13" y="681">getY1()</text>
	<text font-family="Helvetica" font-size="3" fill="#000000" xml:space="preserve" x="13" y="687">getY2()</text>
	<text font-family="Helvetica" font-size="3" fill="#000000" xml:space="preserve" x="13" y="693">getCheckboardX()</text>
	<text font-family="Helvetica" font-size="3" fill="#000000" xml:space="preserve" x="13" y="699">getCheckboardY()</text>
	<text font-family="Helvetica" font-size="3" fill="#000000" xml:space="preserve" x="13" y="705">getXCoordFor()</text>
	<text font-family="Helvetica" font-size="3" fill="#000000" xml:space="preserve" x="13" y="711">getYCoordFor()</text>
	<text font-family="Helvetica" font-size="3" fill="#000000" xml:space="preserve" x="13" y="717">xCoordToPercent()</text>
	<text font-family="Helvetica" font-size="3" fill="#000000" xml:space="preserve" x="13" y="723">yCoordToPercent()</text>
	<text font-family="Helvetica" font-size="3" fill="#000000" xml:space="preserve" x="13" y="729">isCheckboard()</text>
	<text font-family="Helvetica" font-size="3" fill="#000000" xml:space="preserve" x="13" y="735">isCheckboardPercent()</text>
	<text font-family="Helvetica" font-size="3" fill="#000000" xml:space="preserve" x="13" y="741">isLeftMenu()</text>
	<text font-family="Helvetica" font-size="3" fill="#000000" xml:space="preserve" x="13" y="747">isDownMenu()</text>
	<text font-family="Helvetica" font-size="3" fill="#000000" xml:space="preserve" x="13" y="753">distanceBetweenTwoPoints()</text>
	<text font-family="Helvetica" font-size="3" fill="#000000" xml:space="preserve" x="13" y="759">getStrategyFor()</text>
</g>
<g>
	<line stroke="#000000" stroke-opacity="1" x1="510" y1="511" x2="510" y2="494" />
</g>
<g>
	<line stroke="#000000" stroke-opacity="1" x1="510" y1="494" x2="450" y2="494" />
</g>
<g>
	<line stroke="#000000" stroke-opacity="1" x1="450" y1="494" x2="450" y2="479" />
	<line stroke="#000000" stroke-opacity="1" x1="450" y1="473" x2="444" y2="479" />
	<line stroke="#000000" stroke-opacity="1" x1="450" y1="473" x2="456" y2="479" />
	<line stroke="#000000" stroke-opacity="1" x1="444" y1="479" x2="456" y2="479" />
</g>
<g>
	<rect fill="#cbcbcb" stroke="none" stroke-opacity="1" x="162" y="540" width="2" height="32" />
	<rect fill="#cbcbcb" stroke="none" stroke-opacity="1" x="108" y="570" width="56" height="2" />
	<rect fill="#ffffc0" stroke="black" stroke-width="1" stroke-opacity="1" x="105" y="537" width="57" height="33" />
	<text font-family="Helvetica" font-size="3" fill="#000000" xml:space="preserve" font-weight="bold" text-anchor="middle" x="134" y="540">Controller</text>
	<line stroke="black" stroke-opacity="1" x1="105" y1="543" x2="162" y2="543" />
	<line stroke="black" stroke-opacity="1" x1="105" y1="545" x2="162" y2="545" />
	<text font-family="Helvetica" font-size="3" fill="#000000" xml:space="preserve" x="106" y="548">Controller()</text>
	<text font-family="Helvetica" font-size="3" fill="#000000" xml:space="preserve" x="106" y="554">MouseCallback()</text>
	<text font-family="Helvetica" font-size="3" fill="#000000" xml:space="preserve" x="106" y="560">CreateSpacecraft()</text>
	<text font-family="Helvetica" font-size="3" fill="#000000" xml:space="preserve" x="106" y="566">setSpacecraftStrategy()</text>
</g>
<g>
	<line stroke="black" stroke-opacity="1" x1="104" y1="556" x2="43" y2="556" />
</g>
<g>
	<line stroke="black" stroke-opacity="1" x1="43" y1="581" x2="49" y2="575" />
	<line stroke="black" stroke-opacity="1" x1="43" y1="581" x2="37" y2="575" />
	<line stroke="black" stroke-opacity="1" x1="43" y1="556" x2="43" y2="581" />
</g>
<g>
	<rect fill="#cbcbcb" stroke="none" stroke-opacity="1" x="174" y="649" width="2" height="180" />
	<rect fill="#cbcbcb" stroke="none" stroke-opacity="1" x="96" y="827" width="80" height="2" />
	<rect fill="#ffffc0" stroke="black" stroke-width="1" stroke-opacity="1" x="93" y="646" width="81" height="181" />
	<text font-family="Helvetica" font-size="3" fill="#000000" xml:space="preserve" font-weight="bold" text-anchor="middle" x="134" y="649">Environment</text>
	<line stroke="black" stroke-opacity="1" x1="93" y1="652" x2="174" y2="652" />
	<text font-family="Helvetica" font-size="3" fill="#000000" xml:space="preserve" x="94" y="655">board</text>
	<text font-family="Helvetica" font-size="3" fill="#000000" xml:space="preserve" x="94" y="661">spacecrafts</text>
	<text font-family="Helvetica" font-size="3" fill="#000000" xml:space="preserve" x="94" y="667">asteroids</text>
	<text font-family="Helvetica" font-size="3" fill="#000000" xml:space="preserve" x="94" y="673">lastSpawn</text>
	<text font-family="Helvetica" font-size="3" fill="#000000" xml:space="preserve" x="94" y="679">money</text>
	<text font-family="Helvetica" font-size="3" fill="#000000" xml:space="preserve" x="94" y="685">health</text>
	<line stroke="black" stroke-opacity="1" x1="93" y1="688" x2="174" y2="688" />
	<text font-family="Helvetica" font-size="3" fill="#000000" xml:space="preserve" x="94" y="691">Environment()</text>
	<text font-family="Helvetica" font-size="3" fill="#000000" xml:space="preserve" x="94" y="697">setMoney()</text>
	<text font-family="Helvetica" font-size="3" fill="#000000" xml:space="preserve" x="94" y="703">addMoney()</text>
	<text font-family="Helvetica" font-size="3" fill="#000000" xml:space="preserve" x="94" y="709">getMoney()</text>
	<text font-family="Helvetica" font-size="3" fill="#000000" xml:space="preserve" x="94" y="715">withdrawMoney()</text>
	<text font-family="Helvetica" font-size="3" fill="#000000" xml:space="preserve" x="94" y="721">getNbAsteroids()</text>
	<text font-family="Helvetica" font-size="3" fill="#000000" xml:space="preserve" x="94" y="727">idle()</text>
	<text font-family="Helvetica" font-size="3" fill="#000000" xml:space="preserve" x="94" y="733">RequestCreation()</text>
	<text font-family="Helvetica" font-size="3" fill="#000000" xml:space="preserve" x="94" y="739">addSpacecraft()</text>
	<text font-family="Helvetica" font-size="3" fill="#000000" xml:space="preserve" x="94" y="745">removeSpacecraft()</text>
	<text font-family="Helvetica" font-size="3" fill="#000000" xml:space="preserve" x="94" y="751">addAsteroid()</text>
	<text font-family="Helvetica" font-size="3" fill="#000000" xml:space="preserve" x="94" y="757">removeAsteroid()</text>
	<text font-family="Helvetica" font-size="3" fill="#000000" xml:space="preserve" x="94" y="763">setLevel()</text>
	<text font-family="Helvetica" font-size="3" fill="#000000" xml:space="preserve" x="94" y="769">setLevel()</text>
	<text font-family="Helvetica" font-size="3" fill="#000000" xml:space="preserve" x="94" y="775">getLevel()</text>
	<text font-family="Helvetica" font-size="3" fill="#000000" xml:space="preserve" x="94" y="781">loseHealth()</text>
	<text font-family="Helvetica" font-size="3" fill="#000000" xml:space="preserve" x="94" y="787">giveHealth()</text>
	<text font-family="Helvetica" font-size="3" fill="#000000" xml:space="preserve" x="94" y="793">getHealth()</text>
	<text font-family="Helvetica" font-size="3" fill="#000000" xml:space="preserve" x="94" y="799">endGame()</text>
	<text font-family="Helvetica" font-size="3" fill="#000000" xml:space="preserve" x="94" y="805">closestAsteroidFromSpacecraft()</text>
	<text font-family="Helvetica" font-size="3" fill="#000000" xml:space="preserve" x="94" y="811">closestAsteroidToLeft()</text>
	<text font-family="Helvetica" font-size="3" fill="#000000" xml:space="preserve" x="94" y="817">lowestHealthTouchableAsteroid()</text>
	<text font-family="Helvetica" font-size="3" fill="#000000" xml:space="preserve" x="94" y="823">isDrawableInGdb()</text>
</g>
<g>
	<line stroke="black" stroke-opacity="1" x1="86" y1="646" x2="86" y2="654" />
	<line stroke="black" stroke-opacity="1" x1="86" y1="646" x2="94" y2="646" />
	<line stroke="black" stroke-opacity="1" x1="92" y1="652" x2="86" y2="646" />
</g>
<g>
	<line stroke="black" stroke-opacity="1" x1="137" y1="645" x2="143" y2="639" />
	<line stroke="black" stroke-opacity="1" x1="137" y1="645" x2="131" y2="639" />
	<line stroke="black" stroke-opacity="1" x1="137" y1="573" x2="137" y2="645" />
</g>
<g>
	<line stroke="black" stroke-opacity="1" x1="92" y1="667" x2="92" y2="658" />
	<line stroke="black" stroke-opacity="1" x1="92" y1="667" x2="83" y2="667" />
	<line stroke="black" stroke-opacity="1" x1="86" y1="661" x2="92" y2="667" />
</g>
<g>
	<text font-family="Helvetica" font-size="3" fill="#000000" xml:space="preserve" x="529" y="666">origin</text>
</g>
<g>
	<text font-family="Helvetica" font-size="3" fill="#000000" xml:space="preserve" x="140" y="852">level</text>
</g>
<g>
	<text font-family="Helvetica" font-size="3" fill="#000000" xml:space="preserve" x="173" y="728">environment</text>
</g>
<g>
	<text font-family="Helvetica" font-size="3" fill="#000000" xml:space="preserve" x="474" y="437">destination</text>
</g>
<g>
	<text font-family="Helvetica" font-size="3" fill="#000000" xml:space="preserve" x="85" y="640">gdb</text>
</g>
<g>
	<text font-family="Helvetica" font-size="3" fill="#000000" xml:space="preserve" x="187" y="552">scStrategy</text>
</g>
<g>
	<text font-family="Helvetica" font-size="3" fill="#000000" xml:space="preserve" x="87" y="656">env</text>
</g>
<g>
	<text font-family="Helvetica" font-size="3" fill="#000000" xml:space="preserve" x="53" y="569">gdb</text>
</g>
<g>
	<text font-family="Helvetica" font-size="3" fill="#000000" xml:space="preserve" x="139" y="632">environment</text>
</g>
<g>
	<rect fill="#cbcbcb" stroke="none" stroke-opacity="1" x="263" y="549" width="2" height="14" />
	<rect fill="#cbcbcb" stroke="none" stroke-opacity="1" x="215" y="561" width="50" height="2" />
	<rect fill="#ffffc0" stroke="black" stroke-width="1" stroke-opacity="1" x="212" y="546" width="51" height="15" />
	<text font-family="Helvetica" font-size="3" fill="#000000" xml:space="preserve" font-weight="bold" font-style="italic" text-anchor="middle" x="238" y="549">ISpacecraftStrategy</text>
	<line stroke="black" stroke-opacity="1" x1="212" y1="552" x2="263" y2="552" />
	<line stroke="black" stroke-opacity="1" x1="212" y1="554" x2="263" y2="554" />
	<text font-family="Helvetica" font-size="3" fill="#000000" xml:space="preserve" font-style="italic" x="213" y="557">getSpacecraft()</text>
</g>
<g>
	<rect fill="#cbcbcb" stroke="none" stroke-opacity="1" x="581" y="605" width="2" height="132" />
	<rect fill="#cbcbcb" stroke="none" stroke-opacity="1" x="545" y="735" width="38" height="2" />
	<rect fill="#ffffc0" stroke="black" stroke-width="1" stroke-opacity="1" x="542" y="602" width="39" height="133" />
	<text font-family="Helvetica" font-size="3" fill="#000000" xml:space="preserve" font-weight="bold" font-style="italic" text-anchor="middle" x="562" y="605">Spacecraft</text>
	<line stroke="black" stroke-opacity="1" x1="542" y1="608" x2="581" y2="608" />
	<text font-family="Helvetica" font-size="3" fill="#000000" xml:space="preserve" x="543" y="611">frequency</text>
	<text font-family="Helvetica" font-size="3" fill="#000000" xml:space="preserve" x="543" y="617">power</text>
	<text font-family="Helvetica" font-size="3" fill="#000000" xml:space="preserve" x="543" y="623">range</text>
	<text font-family="Helvetica" font-size="3" fill="#000000" xml:space="preserve" x="543" y="629">maxHealth</text>
	<text font-family="Helvetica" font-size="3" fill="#000000" xml:space="preserve" x="543" y="635">health</text>
	<text font-family="Helvetica" font-size="3" fill="#000000" xml:space="preserve" x="543" y="641">cost</text>
	<text font-family="Helvetica" font-size="3" fill="#000000" xml:space="preserve" x="543" y="647">laserShots</text>
	<text font-family="Helvetica" font-size="3" fill="#000000" xml:space="preserve" x="543" y="653">lastShot</text>
	<line stroke="black" stroke-opacity="1" x1="542" y1="656" x2="581" y2="656" />
	<text font-family="Helvetica" font-size="3" fill="#000000" xml:space="preserve" x="543" y="659">Spacecraft()</text>
	<text font-family="Helvetica" font-size="3" fill="#000000" xml:space="preserve" x="543" y="665">~Spacecraft()</text>
	<text font-family="Helvetica" font-size="3" fill="#000000" xml:space="preserve" x="543" y="671">getFrequency()</text>
	<text font-family="Helvetica" font-size="3" fill="#000000" xml:space="preserve" x="543" y="677">getPower()</text>
	<text font-family="Helvetica" font-size="3" fill="#000000" xml:space="preserve" x="543" y="683">getRange()</text>
	<text font-family="Helvetica" font-size="3" fill="#000000" xml:space="preserve" x="543" y="689">getMaxHealth()</text>
	<text font-family="Helvetica" font-size="3" fill="#000000" xml:space="preserve" x="543" y="695">getHealth()</text>
	<text font-family="Helvetica" font-size="3" fill="#000000" xml:space="preserve" x="543" y="701">getCost()</text>
	<text font-family="Helvetica" font-size="3" fill="#000000" xml:space="preserve" x="543" y="707">setHealth()</text>
	<text font-family="Helvetica" font-size="3" fill="#000000" xml:space="preserve" x="543" y="713">deleteShot()</text>
	<text font-family="Helvetica" font-size="3" fill="#000000" xml:space="preserve" x="543" y="719">Shot()</text>
	<text font-family="Helvetica" font-size="3" fill="#000000" xml:space="preserve" font-style="italic" x="543" y="725">Tick()</text>
	<text font-family="Helvetica" font-size="3" fill="#000000" xml:space="preserve" font-style="italic" x="543" y="731">Draw()</text>
</g>
<g>
	<line stroke="black" stroke-opacity="1" x1="211" y1="556" x2="205" y2="550" />
	<line stroke="black" stroke-opacity="1" x1="211" y1="556" x2="205" y2="562" />
	<line stroke="black" stroke-opacity="1" x1="165" y1="556" x2="211" y2="556" />
</g>
<g>
	<line stroke="black" stroke-opacity="1" x1="177" y1="730" x2="183" y2="734" />
	<line stroke="black" stroke-opacity="1" x1="177" y1="730" x2="181" y2="723" />
	<line stroke="black" stroke-opacity="1" x1="541" y1="673" x2="177" y2="730" />
</g>
<g>
	<rect fill="#cbcbcb" stroke="none" stroke-opacity="1" x="198" y="604" width="2" height="14" />
	<rect fill="#cbcbcb" stroke="none" stroke-opacity="1" x="160" y="616" width="40" height="2" />
	<rect fill="#ffffc0" stroke="black" stroke-width="1" stroke-opacity="1" x="157" y="601" width="41" height="15" />
	<text font-family="Helvetica" font-size="3" fill="#000000" xml:space="preserve" font-weight="bold" text-anchor="middle" x="178" y="604">ElysiumStrategy</text>
	<line stroke="black" stroke-opacity="1" x1="157" y1="607" x2="198" y2="607" />
	<line stroke="black" stroke-opacity="1" x1="157" y1="609" x2="198" y2="609" />
	<text font-family="Helvetica" font-size="3" fill="#000000" xml:space="preserve" x="158" y="612">getSpacecraft()</text>
</g>
<g>
	<rect fill="#cbcbcb" stroke="none" stroke-opacity="1" x="616" y="65" width="2" height="150" />
	<rect fill="#cbcbcb" stroke="none" stroke-opacity="1" x="570" y="213" width="48" height="2" />
	<rect fill="#ffffc0" stroke="black" stroke-width="1" stroke-opacity="1" x="567" y="62" width="49" height="151" />
	<text font-family="Helvetica" font-size="3" fill="#000000" xml:space="preserve" font-weight="bold" text-anchor="middle" x="592" y="65">DrawableObject</text>
	<line stroke="black" stroke-opacity="1" x1="567" y1="68" x2="616" y2="68" />
	<text font-family="Helvetica" font-size="3" fill="#000000" xml:space="preserve" x="568" y="71">x</text>
	<text font-family="Helvetica" font-size="3" fill="#000000" xml:space="preserve" x="568" y="77">y</text>
	<text font-family="Helvetica" font-size="3" fill="#000000" xml:space="preserve" x="568" y="83">width</text>
	<text font-family="Helvetica" font-size="3" fill="#000000" xml:space="preserve" x="568" y="89">height</text>
	<text font-family="Helvetica" font-size="3" fill="#000000" xml:space="preserve" x="568" y="95">r</text>
	<text font-family="Helvetica" font-size="3" fill="#000000" xml:space="preserve" x="568" y="101">g</text>
	<text font-family="Helvetica" font-size="3" fill="#000000" xml:space="preserve" x="568" y="107">b</text>
	<line stroke="black" stroke-opacity="1" x1="567" y1="110" x2="616" y2="110" />
	<text font-family="Helvetica" font-size="3" fill="#000000" xml:space="preserve" x="568" y="113">DrawableObject()</text>
	<text font-family="Helvetica" font-size="3" fill="#000000" xml:space="preserve" x="568" y="119">~DrawableObject()</text>
	<text font-family="Helvetica" font-size="3" fill="#000000" xml:space="preserve" x="568" y="125">setX()</text>
	<text font-family="Helvetica" font-size="3" fill="#000000" xml:space="preserve" x="568" y="131">setY()</text>
	<text font-family="Helvetica" font-size="3" fill="#000000" xml:space="preserve" x="568" y="137">setWidth()</text>
	<text font-family="Helvetica" font-size="3" fill="#000000" xml:space="preserve" x="568" y="143">setHeight()</text>
	<text font-family="Helvetica" font-size="3" fill="#000000" xml:space="preserve" x="568" y="149">setRGB()</text>
	<text font-family="Helvetica" font-size="3" fill="#000000" xml:space="preserve" x="568" y="155">getX()</text>
	<text font-family="Helvetica" font-size="3" fill="#000000" xml:space="preserve" x="568" y="161">getY()</text>
	<text font-family="Helvetica" font-size="3" fill="#000000" xml:space="preserve" x="568" y="167">getWidth()</text>
	<text font-family="Helvetica" font-size="3" fill="#000000" xml:space="preserve" x="568" y="173">getHeight()</text>
	<text font-family="Helvetica" font-size="3" fill="#000000" xml:space="preserve" x="568" y="179">getR()</text>
	<text font-family="Helvetica" font-size="3" fill="#000000" xml:space="preserve" x="568" y="185">getG()</text>
	<text font-family="Helvetica" font-size="3" fill="#000000" xml:space="preserve" x="568" y="191">getB()</text>
	<text font-family="Helvetica" font-size="3" fill="#000000" xml:space="preserve" x="568" y="197">rotate_point()</text>
	<text font-family="Helvetica" font-size="3" fill="#000000" xml:space="preserve" x="568" y="203">angle_to_drawble()</text>
	<text font-family="Helvetica" font-size="3" fill="#000000" xml:space="preserve" x="568" y="209">distance_to()</text>
</g>
<g>
	<rect fill="#cbcbcb" stroke="none" stroke-opacity="1" x="573" y="245" width="2" height="14" />
	<rect fill="#cbcbcb" stroke="none" stroke-opacity="1" x="553" y="257" width="22" height="2" />
	<rect fill="#ffffc0" stroke="black" stroke-width="1" stroke-opacity="1" x="550" y="242" width="23" height="15" />
	<text font-family="Helvetica" font-size="3" fill="#000000" xml:space="preserve" font-weight="bold" font-style="italic" text-anchor="middle" x="562" y="245">ITickable</text>
	<line stroke="black" stroke-opacity="1" x1="550" y1="248" x2="573" y2="248" />
	<line stroke="black" stroke-opacity="1" x1="550" y1="250" x2="573" y2="250" />
	<text font-family="Helvetica" font-size="3" fill="#000000" xml:space="preserve" font-style="italic" x="551" y="253">Tick()</text>
</g>
<g>
	<rect fill="#cbcbcb" stroke="none" stroke-opacity="1" x="353" y="561" width="2" height="32" />
	<rect fill="#cbcbcb" stroke="none" stroke-opacity="1" x="325" y="591" width="30" height="2" />
	<rect fill="#ffffc0" stroke="black" stroke-width="1" stroke-opacity="1" x="322" y="558" width="31" height="33" />
	<text font-family="Helvetica" font-size="3" fill="#000000" xml:space="preserve" font-weight="bold" text-anchor="middle" x="338" y="561">LaserShot</text>
	<line stroke="black" stroke-opacity="1" x1="322" y1="564" x2="353" y2="564" />
	<line stroke="black" stroke-opacity="1" x1="322" y1="566" x2="353" y2="566" />
	<text font-family="Helvetica" font-size="3" fill="#000000" xml:space="preserve" x="323" y="569">LaserShot()</text>
	<text font-family="Helvetica" font-size="3" fill="#000000" xml:space="preserve" x="323" y="575">hasHit()</text>
	<text font-family="Helvetica" font-size="3" fill="#000000" xml:space="preserve" x="323" y="581">Draw()</text>
	<text font-family="Helvetica" font-size="3" fill="#000000" xml:space="preserve" x="323" y="587">Tick()</text>
</g>
<g>
	<rect fill="#cbcbcb" stroke="none" stroke-opacity="1" x="575" y="783" width="2" height="26" />
	<rect fill="#cbcbcb" stroke="none" stroke-opacity="1" x="551" y="807" width="26" height="2" />
	<rect fill="#ffffc0" stroke="black" stroke-width="1" stroke-opacity="1" x="548" y="780" width="27" height="27" />
	<text font-family="Helvetica" font-size="3" fill="#000000" xml:space="preserve" font-weight="bold" text-anchor="middle" x="562" y="783">Hispania</text>
	<line stroke="black" stroke-opacity="1" x1="548" y1="786" x2="575" y2="786" />
	<line stroke="black" stroke-opacity="1" x1="548" y1="788" x2="575" y2="788" />
	<text font-family="Helvetica" font-size="3" fill="#000000" xml:space="preserve" x="549" y="791">Hispania()</text>
	<text font-family="Helvetica" font-size="3" fill="#000000" xml:space="preserve" x="549" y="797">Tick()</text>
	<text font-family="Helvetica" font-size="3" fill="#000000" xml:space="preserve" x="549" y="803">Draw()</text>
</g>
<g>
	<line stroke="#000000" stroke-opacity="1" x1="426" y1="333" x2="415" y2="333" />
</g>
<g>
	<line stroke="#000000" stroke-opacity="1" x1="179" y1="600" x2="179" y2="583" />
</g>
<g>
	<line stroke="#000000" stroke-opacity="1" x1="563" y1="601" x2="563" y2="266" />
	<line stroke="#000000" stroke-opacity="1" x1="563" y1="260" x2="557" y2="266" />
	<line stroke="#000000" stroke-opacity="1" x1="563" y1="260" x2="569" y2="266" />
	<line stroke="#000000" stroke-opacity="1" x1="557" y1="266" x2="569" y2="266" />
</g>
<g>
	<line stroke="#000000" stroke-opacity="1" x1="339" y1="557" x2="339" y2="390" />
</g>
<g>
	<line stroke="#000000" stroke-opacity="1" x1="451" y1="297" x2="451" y2="279" />
</g>
<g>
	<line stroke="black" stroke-opacity="1" x1="356" y1="577" x2="549" y2="579" />
</g>
<g>
	<line stroke="#000000" stroke-opacity="1" x1="563" y1="779" x2="563" y2="744" />
	<line stroke="#000000" stroke-opacity="1" x1="563" y1="738" x2="557" y2="744" />
	<line stroke="#000000" stroke-opacity="1" x1="563" y1="738" x2="569" y2="744" />
	<line stroke="#000000" stroke-opacity="1" x1="557" y1="744" x2="569" y2="744" />
</g>
<g>
	<line stroke="black" stroke-opacity="1" x1="339" y1="594" x2="341" y2="671" />
</g>
<g>
	<line stroke="#000000" stroke-opacity="1" x1="580" y1="601" x2="580" y2="579" />
</g>
<g>
	<line stroke="#000000" stroke-opacity="1" x1="415" y1="333" x2="415" y2="140" />
</g>
<g>
	<line stroke="black" stroke-opacity="1" x1="549" y1="579" x2="549" y2="442" />
</g>
<g>
	<line stroke="#000000" stroke-opacity="1" x1="580" y1="579" x2="592" y2="579" />
</g>
<g>
	<line stroke="black" stroke-opacity="1" x1="541" y1="670" x2="534" y2="664" />
	<line stroke="black" stroke-opacity="1" x1="541" y1="670" x2="535" y2="676" />
	<line stroke="black" stroke-opacity="1" x1="341" y1="671" x2="541" y2="670" />
</g>
<g>
	<line stroke="#000000" stroke-opacity="1" x1="179" y1="583" x2="240" y2="583" />
</g>
<g>
	<line stroke="#000000" stroke-opacity="1" x1="339" y1="390" x2="451" y2="390" />
</g>
<g>
	<line stroke="#000000" stroke-opacity="1" x1="451" y1="279" x2="564" y2="279" />
</g>
<g>
	<line stroke="#000000" stroke-opacity="1" x1="592" y1="579" x2="592" y2="222" />
	<line stroke="#000000" stroke-opacity="1" x1="592" y1="216" x2="586" y2="222" />
	<line stroke="#000000" stroke-opacity="1" x1="592" y1="216" x2="598" y2="222" />
	<line stroke="#000000" stroke-opacity="1" x1="586" y1="222" x2="598" y2="222" />
</g>
<g>
	<line stroke="black" stroke-opacity="1" x1="476" y1="441" x2="481" y2="447" />
	<line stroke="black" stroke-opacity="1" x1="476" y1="441" x2="482" y2="435" />
	<line stroke="black" stroke-opacity="1" x1="549" y1="442" x2="476" y2="441" />
</g>
<g>
	<line stroke="#000000" stroke-opacity="1" x1="415" y1="140" x2="560" y2="139" />
	<line stroke="#000000" stroke-opacity="1" x1="566" y1="139" x2="559" y2="133" />
	<line stroke="#000000" stroke-opacity="1" x1="566" y1="139" x2="560" y2="145" />
	<line stroke="#000000" stroke-opacity="1" x1="559" y1="133" x2="560" y2="145" />
</g>
<g>
	<line stroke="#000000" stroke-opacity="1" x1="240" y1="583" x2="239" y2="569" />
	<line stroke="#000000" stroke-opacity="1" x1="239" y1="564" x2="233" y2="570" />
	<line stroke="#000000" stroke-opacity="1" x1="239" y1="564" x2="245" y2="569" />
	<line stroke="#000000" stroke-opacity="1" x1="233" y1="570" x2="245" y2="569" />
</g>
<g>
	<line stroke="#000000" stroke-opacity="1" x1="451" y1="390" x2="451" y2="374" />
	<line stroke="#000000" stroke-opacity="1" x1="451" y1="368" x2="445" y2="374" />
	<line stroke="#000000" stroke-opacity="1" x1="451" y1="368" x2="457" y2="374" />
	<line stroke="#000000" stroke-opacity="1" x1="445" y1="374" x2="457" y2="374" />
</g>
<g>
	<line stroke="#000000" stroke-opacity="1" x1="564" y1="279" x2="563" y2="265" />
	<line stroke="#000000" stroke-opacity="1" x1="563" y1="260" x2="557" y2="266" />
	<line stroke="#000000" stroke-opacity="1" x1="563" y1="260" x2="569" y2="265" />
	<line stroke="#000000" stroke-opacity="1" x1="557" y1="266" x2="569" y2="265" />
</g>
<g>
	<rect fill="#cbcbcb" stroke="none" stroke-opacity="1" x="259" y="604" width="2" height="14" />
	<rect fill="#cbcbcb" stroke="none" stroke-opacity="1" x="217" y="616" width="44" height="2" />
	<rect fill="#ffffc0" stroke="black" stroke-width="1" stroke-opacity="1" x="214" y="601" width="45" height="15" />
	<text font-family="Helvetica" font-size="3" fill="#000000" xml:space="preserve" font-weight="bold" text-anchor="middle" x="237" y="604">HispaniaStrategy</text>
	<line stroke="black" stroke-opacity="1" x1="214" y1="607" x2="259" y2="607" />
	<line stroke="black" stroke-opacity="1" x1="214" y1="609" x2="259" y2="609" />
	<text font-family="Helvetica" font-size="3" fill="#000000" xml:space="preserve" x="215" y="612">getSpacecraft()</text>
</g>
<g>
	<rect fill="#cbcbcb" stroke="none" stroke-opacity="1" x="789" y="22" width="2" height="50" />
	<rect fill="#cbcbcb" stroke="none" stroke-opacity="1" x="731" y="70" width="60" height="2" />
	<rect fill="#ffffc0" stroke="black" stroke-width="1" stroke-opacity="1" x="728" y="19" width="61" height="51" />
	<text font-family="Helvetica" font-size="3" fill="#000000" xml:space="preserve" font-weight="bold" text-anchor="middle" x="759" y="22">SpacecraftFactory</text>
	<line stroke="black" stroke-opacity="1" x1="728" y1="25" x2="789" y2="25" />
	<line stroke="black" stroke-opacity="1" x1="728" y1="27" x2="789" y2="27" />
	<text font-family="Helvetica" font-size="3" fill="#000000" xml:space="preserve" text-decoration="underline" x="729" y="30">getInstance()</text>
	<text font-family="Helvetica" font-size="3" fill="#000000" xml:space="preserve" x="729" y="36">SpacecraftFactory()</text>
	<text font-family="Helvetica" font-size="3" fill="#000000" xml:space="preserve" x="729" y="42">SpacecraftFactory()</text>
	<text font-family="Helvetica" font-size="3" fill="#000000" xml:space="preserve" x="729" y="48">operator =()</text>
	<text font-family="Helvetica" font-size="3" fill="#000000" xml:space="preserve" x="729" y="54">getElysiumSpacecraft()</text>
	<text font-family="Helvetica" font-size="3" fill="#000000" xml:space="preserve" x="729" y="60">getHispaniaSpacecraft()</text>
	<text font-family="Helvetica" font-size="3" fill="#000000" xml:space="preserve" x="729" y="66">getNostromoSpacecraft()</text>
</g>
<g>
	<rect fill="#cbcbcb" stroke="none" stroke-opacity="1" x="604" y="21" width="2" height="14" />
	<rect fill="#cbcbcb" stroke="none" stroke-opacity="1" x="580" y="33" width="26" height="2" />
	<rect fill="#ffffc0" stroke="black" stroke-width="1" stroke-opacity="1" x="577" y="18" width="27" height="15" />
	<text font-family="Helvetica" font-size="3" fill="#000000" xml:space="preserve" font-weight="bold" font-style="italic" text-anchor="middle" x="591" y="21">IDrawable</text>
	<line stroke="black" stroke-opacity="1" x1="577" y1="24" x2="604" y2="24" />
	<line stroke="black" stroke-opacity="1" x1="577" y1="26" x2="604" y2="26" />
	<text font-family="Helvetica" font-size="3" fill="#000000" xml:space="preserve" font-style="italic" x="578" y="29">Draw()</text>
</g>
<g>
	<line stroke="#000000" stroke-opacity="1" x1="238" y1="600" x2="238" y2="570" />
	<line stroke="#000000" stroke-opacity="1" x1="238" y1="564" x2="232" y2="570" />
	<line stroke="#000000" stroke-opacity="1" x1="238" y1="564" x2="244" y2="570" />
	<line stroke="#000000" stroke-opacity="1" x1="232" y1="570" x2="244" y2="570" />
</g>
<g>
	<line stroke="#000000" stroke-opacity="1" x1="592" y1="61" x2="592" y2="42" />
	<line stroke="#000000" stroke-opacity="1" x1="592" y1="36" x2="586" y2="42" />
	<line stroke="#000000" stroke-opacity="1" x1="592" y1="36" x2="598" y2="42" />
	<line stroke="#000000" stroke-opacity="1" x1="586" y1="42" x2="598" y2="42" />
</g>
<g>
	<rect fill="#cbcbcb" stroke="none" stroke-opacity="1" x="619" y="783" width="2" height="26" />
	<rect fill="#cbcbcb" stroke="none" stroke-opacity="1" x="593" y="807" width="28" height="2" />
	<rect fill="#ffffc0" stroke="black" stroke-width="1" stroke-opacity="1" x="590" y="780" width="29" height="27" />
	<text font-family="Helvetica" font-size="3" fill="#000000" xml:space="preserve" font-weight="bold" text-anchor="middle" x="605" y="783">Nostromo</text>
	<line stroke="black" stroke-opacity="1" x1="590" y1="786" x2="619" y2="786" />
	<line stroke="black" stroke-opacity="1" x1="590" y1="788" x2="619" y2="788" />
	<text font-family="Helvetica" font-size="3" fill="#000000" xml:space="preserve" x="591" y="791">Nostromo()</text>
	<text font-family="Helvetica" font-size="3" fill="#000000" xml:space="preserve" x="591" y="797">Tick()</text>
	<text font-family="Helvetica" font-size="3" fill="#000000" xml:space="preserve" x="591" y="803">Draw()</text>
</g>
<g>
	<rect fill="#cbcbcb" stroke="none" stroke-opacity="1" x="534" y="783" width="2" height="26" />
	<rect fill="#cbcbcb" stroke="none" stroke-opacity="1" x="512" y="807" width="24" height="2" />
	<rect fill="#ffffc0" stroke="black" stroke-width="1" stroke-opacity="1" x="509" y="780" width="25" height="27" />
	<text font-family="Helvetica" font-size="3" fill="#000000" xml:space="preserve" font-weight="bold" text-anchor="middle" x="522" y="783">Elysium</text>
	<line stroke="black" stroke-opacity="1" x1="509" y1="786" x2="534" y2="786" />
	<line stroke="black" stroke-opacity="1" x1="509" y1="788" x2="534" y2="788" />
	<text font-family="Helvetica" font-size="3" fill="#000000" xml:space="preserve" x="510" y="791">Elysium()</text>
	<text font-family="Helvetica" font-size="3" fill="#000000" xml:space="preserve" x="510" y="797">Tick()</text>
	<text font-family="Helvetica" font-size="3" fill="#000000" xml:space="preserve" x="510" y="803">Draw()</text>
</g>
<g>
	<rect fill="#cbcbcb" stroke="none" stroke-opacity="1" x="158" y="863" width="2" height="72" />
	<rect fill="#cbcbcb" stroke="none" stroke-opacity="1" x="116" y="933" width="44" height="2" />
	<rect fill="#ffffc0" stroke="black" stroke-width="1" stroke-opacity="1" x="113" y="860" width="45" height="73" />
	<text font-family="Helvetica" font-size="3" fill="#000000" xml:space="preserve" font-weight="bold" text-anchor="middle" x="136" y="863">Level</text>
	<line stroke="black" stroke-opacity="1" x1="113" y1="866" x2="158" y2="866" />
	<text font-family="Helvetica" font-size="3" fill="#000000" xml:space="preserve" x="114" y="869">started</text>
	<text font-family="Helvetica" font-size="3" fill="#000000" xml:space="preserve" x="114" y="875">nbAsteroid</text>
	<text font-family="Helvetica" font-size="3" fill="#000000" xml:space="preserve" x="114" y="881">nbAsteroidLeft</text>
	<text font-family="Helvetica" font-size="3" fill="#000000" xml:space="preserve" x="114" y="887">n</text>
	<line stroke="black" stroke-opacity="1" x1="113" y1="890" x2="158" y2="890" />
	<text font-family="Helvetica" font-size="3" fill="#000000" xml:space="preserve" x="114" y="893">Level()</text>
	<text font-family="Helvetica" font-size="3" fill="#000000" xml:space="preserve" x="114" y="899">startLevel()</text>
	<text font-family="Helvetica" font-size="3" fill="#000000" xml:space="preserve" x="114" y="905">getAsteroid()</text>
	<text font-family="Helvetica" font-size="3" fill="#000000" xml:space="preserve" x="114" y="911">hasStarted()</text>
	<text font-family="Helvetica" font-size="3" fill="#000000" xml:space="preserve" x="114" y="917">getN()</text>
	<text font-family="Helvetica" font-size="3" fill="#000000" xml:space="preserve" x="114" y="923">getNAsteroid()</text>
	<text font-family="Helvetica" font-size="3" fill="#000000" xml:space="preserve" x="114" y="929">getNAsteroidLeft()</text>
</g>
<g>
	<line stroke="#000000" stroke-opacity="1" x1="606" y1="779" x2="606" y2="762" />
</g>
<g>
	<line stroke="#000000" stroke-opacity="1" x1="523" y1="779" x2="524" y2="762" />
</g>
<g>
	<line stroke="black" stroke-opacity="1" x1="137" y1="859" x2="143" y2="853" />
	<line stroke="black" stroke-opacity="1" x1="137" y1="859" x2="131" y2="853" />
	<line stroke="black" stroke-opacity="1" x1="137" y1="830" x2="137" y2="859" />
</g>
<g>
	<line stroke="#000000" stroke-opacity="1" x1="606" y1="762" x2="564" y2="762" />
</g>
<g>
	<line stroke="#000000" stroke-opacity="1" x1="524" y1="762" x2="564" y2="762" />
</g>
<g>
	<line stroke="#000000" stroke-opacity="1" x1="564" y1="762" x2="563" y2="743" />
	<line stroke="#000000" stroke-opacity="1" x1="563" y1="738" x2="557" y2="744" />
	<line stroke="#000000" stroke-opacity="1" x1="563" y1="738" x2="569" y2="743" />
	<line stroke="#000000" stroke-opacity="1" x1="557" y1="744" x2="569" y2="743" />
</g>
<g>
	<rect fill="#cbcbcb" stroke="none" stroke-opacity="1" x="321" y="618" width="2" height="14" />
	<rect fill="#cbcbcb" stroke="none" stroke-opacity="1" x="277" y="630" width="46" height="2" />
	<rect fill="#ffffc0" stroke="black" stroke-width="1" stroke-opacity="1" x="274" y="615" width="47" height="15" />
	<text font-family="Helvetica" font-size="3" fill="#000000" xml:space="preserve" font-weight="bold" text-anchor="middle" x="298" y="618">NostromoStrategy</text>
	<line stroke="black" stroke-opacity="1" x1="274" y1="621" x2="321" y2="621" />
	<line stroke="black" stroke-opacity="1" x1="274" y1="623" x2="321" y2="623" />
	<text font-family="Helvetica" font-size="3" fill="#000000" xml:space="preserve" x="275" y="626">getSpacecraft()</text>
</g>
<g>
	<line stroke="#000000" stroke-opacity="1" x1="564" y1="762" x2="563" y2="743" />
	<line stroke="#000000" stroke-opacity="1" x1="563" y1="738" x2="557" y2="744" />
	<line stroke="#000000" stroke-opacity="1" x1="563" y1="738" x2="569" y2="743" />
	<line stroke="#000000" stroke-opacity="1" x1="557" y1="744" x2="569" y2="743" />
</g>
<g>
	<line stroke="#000000" stroke-opacity="1" x1="299" y1="614" x2="299" y2="583" />
</g>
<g>
	<line stroke="#000000" stroke-opacity="1" x1="299" y1="583" x2="240" y2="583" />
</g>
<g>
	<line stroke="#000000" stroke-opacity="1" x1="240" y1="583" x2="239" y2="569" />
	<line stroke="#000000" stroke-opacity="1" x1="239" y1="564" x2="233" y2="570" />
	<line stroke="#000000" stroke-opacity="1" x1="239" y1="564" x2="245" y2="569" />
	<line stroke="#000000" stroke-opacity="1" x1="233" y1="570" x2="245" y2="569" />
</g>
</svg>
